<!DOCTYPE svg PUBLIC "-//W3C//DTD SVG 1.1//EN" "http://www.w3.org/Graphics/SVG/1.1/DTD/svg11.dtd">
<!-- Uploaded to: SVG Repo, www.svgrepo.com, Transformed by: SVG Repo Mixer Tools -->
<svg fill="#000000" width="120px" height="120px" viewBox="0 0 512.00 512.00" xmlns="http://www.w3.org/2000/svg" stroke="#000000" stroke-width="0.00512">
<g id="SVGRepo_bgCarrier" stroke-width="0"/>
<g id="SVGRepo_tracerCarrier" stroke-linecap="round" stroke-linejoin="round"/>
<g id="SVGRepo_iconCarrier">
<title>ionicons-v5-b</title>
<path d="M256,48C141.31,48,48,141.32,48,256c0,114.86,93.14,208,208,208,114.69,0,208-93.31,208-208C464,141.13,370.87,48,256,48Zm0,313a94,94,0,0,1,0-188h4.21L246.1,158.9a14,14,0,0,1,19.8-19.8l40,40a14,14,0,0,1,0,19.8l-40,40a14,14,0,0,1-19.8-19.8l18-18C261.72,201,259,201,256,201a66,66,0,1,0,66,66,14,14,0,0,1,28,0A94.11,94.11,0,0,1,256,361Z"/>
</g>
</svg>